<svg xmlns='http://www.w3.org/2000/svg' version='1.1' width='796px' height='575px'><svg xmlns="http://www.w3.org/2000/svg" id="graphic" fill="currentColor" font-family="Source Sans Pro" width="775" height="554" x="10.5" y="10.5"><g class="facets"><g class="fl-facets"><g class="fl-facet" transform="translate(29.33909797668457, 0)" opacity="1"><rect class="fl-facet-rect" width="745.6609025138117" height="498.1730807317662" fill="none"/><rect class="fl-facet-primary-rect" width="745.6609025138117" height="498.1730807317662" y="0" fill="none"/><g class="fl-facet-title"><rect class="fl-facet-title-bg" height="0" width="0" fill="rgb(238, 238, 238)" x="0" opacity="0"/><text class="fl-facet-title-text" font-size="14" font-weight="600" transform="translate(0, 14.700000000000001)" opacity="0" text-anchor="start"><tspan x="0" y="0" dx="0" text-anchor="start"/></text></g><g class="fl-facet-primary" transform="translate(0, 0)"><g class="fl-chart ready"><rect class="fl-chart-debug-rectangle" x="0" y="0" style="stroke-width: 1px; fill: none; display: none; stroke: red;" width="745.6609025138117" height="498.1730807317662"/><clipPath class="fl-data-clip-path" id="fl-axes-1-clip-path"><rect x="0" y="8.1" width="734.2057726585897" height="490.0730807317662"/></clipPath><clipPath class="fl-grid-clip-path" id="fl-axes-1-grid-clip-path"><rect x="-1.5" y="6.6" width="737.2057726585897" height="493.0730807317662"/></clipPath><g class="fl-chart-background"><rect class="fl-chart-fill" x="0" y="8.1" width="734.2057726585897" height="490.0730807317662" fill="none"/><image class="fl-chart-image" x="0" y="8.1" width="734.2057726585897" height="490.0730807317662" preserveAspectRatio="none"/><rect class="fl-chart-interaction" style="opacity: 0;" x="0" y="8.1" width="734.2057726585897" height="490.0730807317662"/></g><g class="fl-data-background" clip-path="url(#fl-axes-1-clip-path)"/><g class="fl-gridlines" style="pointer-events: none;" clip-path="url(#fl-axes-1-grid-clip-path)"><g class="fl-gridlines-vertical"/><g class="fl-gridlines-horizontal"><line x1="0" x2="734.2057726585897" y1="498.1730807317662" y2="498.1730807317662" style="shape-rendering: crispedges; opacity: 1; stroke: rgb(238, 238, 238); stroke-width: 1.5;"/><line x1="0" x2="734.2057726585897" y1="376.5298105488246" y2="376.5298105488246" style="shape-rendering: crispedges; opacity: 1; stroke: rgb(238, 238, 238); stroke-width: 1.5;"/><line x1="0" x2="734.2057726585897" y1="254.88654036588312" y2="254.88654036588312" style="shape-rendering: crispedges; opacity: 1; stroke: rgb(238, 238, 238); stroke-width: 1.5;"/><line x1="0" x2="734.2057726585897" y1="133.24327018294156" y2="133.24327018294156" style="shape-rendering: crispedges; opacity: 1; stroke: rgb(238, 238, 238); stroke-width: 1.5;"/><line x1="0" x2="734.2057726585897" y1="11.6" y2="11.6" style="shape-rendering: crispedges; opacity: 1; stroke: rgb(238, 238, 238); stroke-width: 1.5;"/></g></g><g class="fl-axes" aria-hidden="true"><g class="fl-x-axes"><g class="fl-axis fl-x-axis fl-bottom-axis"><g class="fl-axis-line"><line x1="0" y1="498.1730807317662" y2="498.1730807317662" style="shape-rendering: crispedges; stroke-linecap: square; stroke-width: 1.5; opacity: 1; stroke: rgb(238, 238, 238);" x2="734.2057726585897"/></g><g class="fl-axis-ticks"><g transform="translate(45.88785934448242, 498.173095703125)" style="opacity: 1;"><line y2="7" style="stroke: rgb(238, 238, 238); stroke-width: 1.5;"/><text text-anchor="end" transform="translate(0,10.5) rotate(-45,0,0) translate(0,9.24)" style="user-select: none; cursor: default; fill: rgb(74, 74, 74); font-size: 14px; font-weight: normal;"><tspan x="0" dy="0">2016-17</tspan></text></g><g transform="translate(137.66358947753906, 498.173095703125)" style="opacity: 1;"><line y2="7" style="stroke: rgb(238, 238, 238); stroke-width: 1.5;"/><text text-anchor="end" transform="translate(0,10.5) rotate(-45,0,0) translate(0,9.24)" style="user-select: none; cursor: default; fill: rgb(74, 74, 74); font-size: 14px; font-weight: normal;"><tspan x="0" dy="0">2017-18</tspan></text></g><g transform="translate(229.43930053710938, 498.173095703125)" style="opacity: 1;"><line y2="7" style="stroke: rgb(238, 238, 238); stroke-width: 1.5;"/><text text-anchor="end" transform="translate(0,10.5) rotate(-45,0,0) translate(0,9.24)" style="user-select: none; cursor: default; fill: rgb(74, 74, 74); font-size: 14px; font-weight: normal;"><tspan x="0" dy="0">2018-19</tspan></text></g><g transform="translate(321.21502685546875, 498.173095703125)" style="opacity: 1;"><line y2="7" style="stroke: rgb(238, 238, 238); stroke-width: 1.5;"/><text text-anchor="end" transform="translate(0,10.5) rotate(-45,0,0) translate(0,9.24)" style="user-select: none; cursor: default; fill: rgb(74, 74, 74); font-size: 14px; font-weight: normal;"><tspan x="0" dy="0">2019-20</tspan></text></g><g transform="translate(412.9907531738281, 498.173095703125)" style="opacity: 1;"><line y2="7" style="stroke: rgb(238, 238, 238); stroke-width: 1.5;"/><text text-anchor="end" transform="translate(0,10.5) rotate(-45,0,0) translate(0,9.24)" style="user-select: none; cursor: default; fill: rgb(74, 74, 74); font-size: 14px; font-weight: normal;"><tspan x="0" dy="0">2020-21</tspan></text></g><g transform="translate(504.7664794921875, 498.173095703125)" style="opacity: 1;"><line y2="7" style="stroke: rgb(238, 238, 238); stroke-width: 1.5;"/><text text-anchor="end" transform="translate(0,10.5) rotate(-45,0,0) translate(0,9.24)" style="user-select: none; cursor: default; fill: rgb(74, 74, 74); font-size: 14px; font-weight: normal;"><tspan x="0" dy="0">2021-22</tspan></text></g><g transform="translate(596.5421752929688, 498.173095703125)" style="opacity: 1;"><line y2="7" style="stroke: rgb(238, 238, 238); stroke-width: 1.5;"/><text text-anchor="end" transform="translate(0,10.5) rotate(-45,0,0) translate(0,9.24)" style="user-select: none; cursor: default; fill: rgb(74, 74, 74); font-size: 14px; font-weight: normal;"><tspan x="0" dy="0">2022-23</tspan></text></g><g transform="translate(688.3179321289062, 498.173095703125)" style="opacity: 1;"><line y2="7" style="stroke: rgb(238, 238, 238); stroke-width: 1.5;"/><text text-anchor="end" transform="translate(0,10.5) rotate(-45,0,0) translate(0,9.24)" style="user-select: none; cursor: default; fill: rgb(74, 74, 74); font-size: 14px; font-weight: normal;"><tspan x="0" dy="0">2023-24</tspan></text></g></g><g class="fl-axis-title"/></g><g class="fl-axis fl-x-axis fl-top-axis"><g class="fl-axis-line"/><g class="fl-axis-ticks"/><g class="fl-axis-title"/></g></g><g class="fl-y-axes"><g class="fl-axis fl-y-axis fl-left-axis"><g class="fl-axis-line"><line x1="0" x2="0" y1="498.1730807317662" y2="8.1" style="shape-rendering: crispedges; stroke-linecap: square; stroke-width: 1.5; opacity: 1; stroke: rgb(238, 238, 238);"/></g><g class="fl-axis-ticks"><g transform="translate(0, 498.173095703125)" style="opacity: 1;"><line x2="-7" style="stroke: rgb(238, 238, 238); stroke-width: 1.5;"/><text text-anchor="end" transform="translate(-10.5,4.62)" style="user-select: none; cursor: default; fill: rgb(74, 74, 74); font-size: 14px; font-weight: normal;"><tspan x="0" dy="0">0</tspan></text></g><g transform="translate(0, 11.600000381469727)" style="opacity: 1;"><line x2="-7" style="stroke: rgb(238, 238, 238); stroke-width: 1.5;"/><text text-anchor="end" transform="translate(-10.5,4.62)" style="user-select: none; cursor: default; fill: rgb(74, 74, 74); font-size: 14px; font-weight: normal;"><tspan x="0" dy="0">20</tspan></text></g><g transform="translate(0, 254.88653564453125)" style="opacity: 1;"><line x2="-7" style="stroke: rgb(238, 238, 238); stroke-width: 1.5;"/><text text-anchor="end" transform="translate(-10.5,4.62)" style="user-select: none; cursor: default; fill: rgb(74, 74, 74); font-size: 14px; font-weight: normal;"><tspan x="0" dy="0">10</tspan></text></g><g transform="translate(0, 376.5298156738281)" style="opacity: 1;"><line x2="-7" style="stroke: rgb(238, 238, 238); stroke-width: 1.5;"/><text text-anchor="end" transform="translate(-10.5,4.62)" style="user-select: none; cursor: default; fill: rgb(74, 74, 74); font-size: 14px; font-weight: normal;"><tspan x="0" dy="0">5</tspan></text></g><g transform="translate(0, 133.24327087402344)" style="opacity: 1;"><line x2="-7" style="stroke: rgb(238, 238, 238); stroke-width: 1.5;"/><text text-anchor="end" transform="translate(-10.5,4.62)" style="user-select: none; cursor: default; fill: rgb(74, 74, 74); font-size: 14px; font-weight: normal;"><tspan x="0" dy="0">15</tspan></text></g></g><g class="fl-axis-title"/></g><g class="fl-axis fl-y-axis fl-right-axis"><g class="fl-axis-line"/><g class="fl-axis-ticks"/><g class="fl-axis-title"/></g></g></g><g class="fl-data-foreground" clip-path="url(#fl-axes-1-clip-path)"/></g></g></g></g></g><g class="annotations below"/><g id="areas"/><g id="lines"><g class="series"><clipPath id="clip-0-0"><rect width="730.7057726585897" x="0" y="5.299999999999999" height="495.6730807317662"/></clipPath><path class="outline" opacity="1" pointer-events="none" fill="none" stroke="#ffffff" stroke-width="4.800000000000001" transform="translate(29.33909797668457, 0)" clip-path="url(#clip-0-0)" clip-path-id="0-0" d="M45.888,108.915C76.48,106.482,107.072,104.049,137.664,104.049C168.255,104.049,198.847,169.331,229.439,196.498C260.031,223.665,290.623,267.051,321.215,267.051C351.807,267.051,382.399,101.616,412.991,101.616C443.583,101.616,474.175,185.955,504.766,211.095C535.358,236.235,565.95,252.454,596.542,252.454C627.134,252.454,657.726,136.893,688.318,21.331"/><path class="line" opacity="1" pointer-events="none" fill="none" stroke="#4328E7" stroke-width="2.8000000000000003" transform="translate(29.33909797668457, 0)" clip-path="url(#clip-0-0)" clip-path-id="0-0" d="M45.888,108.915C76.48,106.482,107.072,104.049,137.664,104.049C168.255,104.049,198.847,169.331,229.439,196.498C260.031,223.665,290.623,267.051,321.215,267.051C351.807,267.051,382.399,101.616,412.991,101.616C443.583,101.616,474.175,185.955,504.766,211.095C535.358,236.235,565.95,252.454,596.542,252.454C627.134,252.454,657.726,136.893,688.318,21.331"/></g><g class="series"><clipPath id="clip-0-1"><rect width="730.7057726585897" x="0" y="5.299999999999999" height="495.6730807317662"/></clipPath><path class="outline" opacity="1" pointer-events="none" fill="none" stroke="#ffffff" stroke-width="4.800000000000001" transform="translate(29.33909797668457, 0)" clip-path="url(#clip-0-1)" clip-path-id="0-1" d="M45.888,308.41C76.48,297.867,107.072,287.325,137.664,284.081C168.255,280.837,198.847,282.459,229.439,279.215C260.031,275.971,290.623,245.155,321.215,245.155C351.807,245.155,382.399,276.782,412.991,276.782C443.583,276.782,474.175,274.349,504.766,269.484C535.358,264.618,565.95,238.667,596.542,228.125C627.134,217.583,657.726,211.906,688.318,206.229"/><path class="line" opacity="1" pointer-events="none" fill="none" stroke="#9654E5" stroke-width="2.8000000000000003" transform="translate(29.33909797668457, 0)" clip-path="url(#clip-0-1)" clip-path-id="0-1" d="M45.888,308.41C76.48,297.867,107.072,287.325,137.664,284.081C168.255,280.837,198.847,282.459,229.439,279.215C260.031,275.971,290.623,245.155,321.215,245.155C351.807,245.155,382.399,276.782,412.991,276.782C443.583,276.782,474.175,274.349,504.766,269.484C535.358,264.618,565.95,238.667,596.542,228.125C627.134,217.583,657.726,211.906,688.318,206.229"/></g><g class="series"><clipPath id="clip-0-2"><rect width="730.7057726585897" x="0" y="5.299999999999999" height="495.6730807317662"/></clipPath><path class="outline" opacity="1" pointer-events="none" fill="none" stroke="#ffffff" stroke-width="4.800000000000001" transform="translate(29.33909797668457, 0)" clip-path="url(#clip-0-2)" clip-path-id="0-2" d="M45.888,279.215C76.48,277.796,107.072,276.377,137.664,274.349C168.255,272.322,198.847,267.051,229.439,267.051C260.031,267.051,290.623,267.051,321.215,267.051C351.807,267.051,382.399,263.402,412.991,262.185C443.583,260.969,474.175,261.374,504.766,259.752C535.358,258.13,565.95,254.076,596.542,252.454C627.134,250.832,657.726,250.426,688.318,250.021"/><path class="line" opacity="1" pointer-events="none" fill="none" stroke="#FF6283" stroke-width="2.8000000000000003" transform="translate(29.33909797668457, 0)" clip-path="url(#clip-0-2)" clip-path-id="0-2" d="M45.888,279.215C76.48,277.796,107.072,276.377,137.664,274.349C168.255,272.322,198.847,267.051,229.439,267.051C260.031,267.051,290.623,267.051,321.215,267.051C351.807,267.051,382.399,263.402,412.991,262.185C443.583,260.969,474.175,261.374,504.766,259.752C535.358,258.13,565.95,254.076,596.542,252.454C627.134,250.832,657.726,250.426,688.318,250.021"/></g></g><g id="data-points"><g class="series" transform="translate(29.33909797668457, 0)" clip-path="url(#clip-data-points-0)"><clipPath id="clip-data-points-0"><rect x="-3.5" y="5.299999999999999" height="492.8730807317662" width="737.7057726585897"/></clipPath><path class="data-point" visibility="visible" fill="#4328E7" data-type="point" transform="translate(0, 0)" d="M42.38786079116187,108.91461614635323A3.5,3.5,0,1,1,49.38786079116187,108.91461614635323A3.5,3.5,0,1,1,42.38786079116187,108.91461614635323Z" opacity="1" tabindex="0" role="img" aria-roledescription="data point" id="point-0-0" aria-label="Boeser, 2016-17: 16"/><path class="data-point" visibility="visible" fill="#4328E7" data-type="point" transform="translate(0, 0)" d="M134.16358237348558,104.0488853390356A3.5,3.5,0,1,1,141.16358237348558,104.0488853390356A3.5,3.5,0,1,1,134.16358237348558,104.0488853390356Z" opacity="1" tabindex="0" role="img" aria-roledescription="data point" id="point-0-1" aria-label="Boeser, 2017-18: 16.2"/><path class="data-point" visibility="visible" fill="#4328E7" data-type="point" transform="translate(0, 0)" d="M225.9393039558093,196.49777067807116A3.5,3.5,0,1,1,232.9393039558093,196.49777067807116A3.5,3.5,0,1,1,225.9393039558093,196.49777067807116Z" opacity="1" tabindex="0" role="img" aria-roledescription="data point" id="point-0-2" aria-label="Boeser, 2018-19: 12.4"/><path class="data-point" visibility="visible" fill="#4328E7" data-type="point" transform="translate(0, 0)" d="M317.715025538133,267.05086738417725A3.5,3.5,0,1,1,324.715025538133,267.05086738417725A3.5,3.5,0,1,1,317.715025538133,267.05086738417725Z" opacity="1" tabindex="0" role="img" aria-roledescription="data point" id="point-0-3" aria-label="Boeser, 2019-20: 9.5"/><path class="data-point" visibility="visible" fill="#4328E7" data-type="point" transform="translate(0, 0)" d="M409.4907471204567,101.61601993537673A3.5,3.5,0,1,1,416.4907471204567,101.61601993537673A3.5,3.5,0,1,1,409.4907471204567,101.61601993537673Z" opacity="1" tabindex="0" role="img" aria-roledescription="data point" id="point-0-4" aria-label="Boeser, 2020-21: 16.3"/><path class="data-point" visibility="visible" fill="#4328E7" data-type="point" transform="translate(0, 0)" d="M501.26646870278046,211.0949631000241A3.5,3.5,0,1,1,508.26646870278046,211.0949631000241A3.5,3.5,0,1,1,501.26646870278046,211.0949631000241Z" opacity="1" tabindex="0" role="img" aria-roledescription="data point" id="point-0-5" aria-label="Boeser, 2021-22: 11.8"/><path class="data-point" visibility="visible" fill="#4328E7" data-type="point" transform="translate(0, 0)" d="M593.0421902851041,252.45367496222428A3.5,3.5,0,1,1,600.0421902851041,252.45367496222428A3.5,3.5,0,1,1,593.0421902851041,252.45367496222428Z" opacity="1" tabindex="0" role="img" aria-roledescription="data point" id="point-0-6" aria-label="Boeser, 2022-23: 10.1"/><path class="data-point" visibility="visible" fill="#4328E7" data-type="point" transform="translate(0, 0)" d="M684.8179118674278,21.33146161463528A3.5,3.5,0,1,1,691.8179118674278,21.33146161463528A3.5,3.5,0,1,1,684.8179118674278,21.33146161463528Z" opacity="1" tabindex="0" role="img" aria-roledescription="data point" id="point-0-7" aria-label="Boeser, 2023-24: 19.6"/></g><g class="series" transform="translate(29.33909797668457, 0)" clip-path="url(#clip-data-points-1)"><clipPath id="clip-data-points-1"><rect x="-3.5" y="5.299999999999999" height="492.8730807317662" width="737.7057726585897"/></clipPath><path class="data-point" visibility="visible" fill="#9654E5" data-type="point" transform="translate(0, 0)" d="M42.38786079116187,308.4095792463774A3.5,3.5,0,1,1,49.38786079116187,308.4095792463774A3.5,3.5,0,1,1,42.38786079116187,308.4095792463774Z" opacity="1" tabindex="0" role="img" aria-roledescription="data point" id="point-1-0" aria-label="Canucks, 2016-17: 7.8"/><path class="data-point" visibility="visible" fill="#9654E5" data-type="point" transform="translate(0, 0)" d="M134.16358237348558,284.08092520978903A3.5,3.5,0,1,1,141.16358237348558,284.08092520978903A3.5,3.5,0,1,1,134.16358237348558,284.08092520978903Z" opacity="1" tabindex="0" role="img" aria-roledescription="data point" id="point-1-1" aria-label="Canucks, 2017-18: 8.8"/><path class="data-point" visibility="visible" fill="#9654E5" data-type="point" transform="translate(0, 0)" d="M225.9393039558093,279.21519440247147A3.5,3.5,0,1,1,232.9393039558093,279.21519440247147A3.5,3.5,0,1,1,225.9393039558093,279.21519440247147Z" opacity="1" tabindex="0" role="img" aria-roledescription="data point" id="point-1-2" aria-label="Canucks, 2018-19: 9"/><path class="data-point" visibility="visible" fill="#9654E5" data-type="point" transform="translate(0, 0)" d="M317.715025538133,245.1550787512478A3.5,3.5,0,1,1,324.715025538133,245.1550787512478A3.5,3.5,0,1,1,317.715025538133,245.1550787512478Z" opacity="1" tabindex="0" role="img" aria-roledescription="data point" id="point-1-3" aria-label="Canucks, 2019-20: 10.4"/><path class="data-point" visibility="visible" fill="#9654E5" data-type="point" transform="translate(0, 0)" d="M409.4907471204567,276.7823289988126A3.5,3.5,0,1,1,416.4907471204567,276.7823289988126A3.5,3.5,0,1,1,409.4907471204567,276.7823289988126Z" opacity="1" tabindex="0" role="img" aria-roledescription="data point" id="point-1-4" aria-label="Canucks, 2020-21: 9.1"/><path class="data-point" visibility="visible" fill="#9654E5" data-type="point" transform="translate(0, 0)" d="M501.26646870278046,269.4837327878361A3.5,3.5,0,1,1,508.26646870278046,269.4837327878361A3.5,3.5,0,1,1,501.26646870278046,269.4837327878361Z" opacity="1" tabindex="0" role="img" aria-roledescription="data point" id="point-1-5" aria-label="Canucks, 2021-22: 9.4"/><path class="data-point" visibility="visible" fill="#9654E5" data-type="point" transform="translate(0, 0)" d="M593.0421902851041,228.125020925636A3.5,3.5,0,1,1,600.0421902851041,228.125020925636A3.5,3.5,0,1,1,593.0421902851041,228.125020925636Z" opacity="1" tabindex="0" role="img" aria-roledescription="data point" id="point-1-6" aria-label="Canucks, 2022-23: 11.1"/><path class="data-point" visibility="visible" fill="#9654E5" data-type="point" transform="translate(0, 0)" d="M684.8179118674278,206.2292322927065A3.5,3.5,0,1,1,691.8179118674278,206.2292322927065A3.5,3.5,0,1,1,684.8179118674278,206.2292322927065Z" opacity="1" tabindex="0" role="img" aria-roledescription="data point" id="point-1-7" aria-label="Canucks, 2023-24: 12"/></g><g class="series" transform="translate(29.33909797668457, 0)" clip-path="url(#clip-data-points-2)"><clipPath id="clip-data-points-2"><rect x="-3.5" y="5.299999999999999" height="492.8730807317662" width="737.7057726585897"/></clipPath><path class="data-point" visibility="visible" fill="#FF6283" data-type="point" transform="translate(0, 0)" d="M42.38786079116187,279.21519440247147A3.5,3.5,0,1,1,49.38786079116187,279.21519440247147A3.5,3.5,0,1,1,42.38786079116187,279.21519440247147Z" opacity="1" tabindex="0" role="img" aria-roledescription="data point" id="point-2-0" aria-label="League average, 2016-17: 9"/><path class="data-point" visibility="visible" fill="#FF6283" data-type="point" transform="translate(0, 0)" d="M134.16358237348558,274.3494635951538A3.5,3.5,0,1,1,141.16358237348558,274.3494635951538A3.5,3.5,0,1,1,134.16358237348558,274.3494635951538Z" opacity="1" tabindex="0" role="img" aria-roledescription="data point" id="point-2-1" aria-label="League average, 2017-18: 9.2"/><path class="data-point" visibility="visible" fill="#FF6283" data-type="point" transform="translate(0, 0)" d="M225.9393039558093,267.05086738417725A3.5,3.5,0,1,1,232.9393039558093,267.05086738417725A3.5,3.5,0,1,1,225.9393039558093,267.05086738417725Z" opacity="1" tabindex="0" role="img" aria-roledescription="data point" id="point-2-2" aria-label="League average, 2018-19: 9.5"/><path class="data-point" visibility="visible" fill="#FF6283" data-type="point" transform="translate(0, 0)" d="M317.715025538133,267.05086738417725A3.5,3.5,0,1,1,324.715025538133,267.05086738417725A3.5,3.5,0,1,1,317.715025538133,267.05086738417725Z" opacity="1" tabindex="0" role="img" aria-roledescription="data point" id="point-2-3" aria-label="League average, 2019-20: 9.5"/><path class="data-point" visibility="visible" fill="#FF6283" data-type="point" transform="translate(0, 0)" d="M409.4907471204567,262.1851365768596A3.5,3.5,0,1,1,416.4907471204567,262.1851365768596A3.5,3.5,0,1,1,409.4907471204567,262.1851365768596Z" opacity="1" tabindex="0" role="img" aria-roledescription="data point" id="point-2-4" aria-label="League average, 2020-21: 9.7"/><path class="data-point" visibility="visible" fill="#FF6283" data-type="point" transform="translate(0, 0)" d="M501.26646870278046,259.75227117320077A3.5,3.5,0,1,1,508.26646870278046,259.75227117320077A3.5,3.5,0,1,1,501.26646870278046,259.75227117320077Z" opacity="1" tabindex="0" role="img" aria-roledescription="data point" id="point-2-5" aria-label="League average, 2021-22: 9.8"/><path class="data-point" visibility="visible" fill="#FF6283" data-type="point" transform="translate(0, 0)" d="M593.0421902851041,252.45367496222428A3.5,3.5,0,1,1,600.0421902851041,252.45367496222428A3.5,3.5,0,1,1,593.0421902851041,252.45367496222428Z" opacity="1" tabindex="0" role="img" aria-roledescription="data point" id="point-2-6" aria-label="League average, 2022-23: 10.1"/><path class="data-point" visibility="visible" fill="#FF6283" data-type="point" transform="translate(0, 0)" d="M684.8179118674278,250.02080955856545A3.5,3.5,0,1,1,691.8179118674278,250.02080955856545A3.5,3.5,0,1,1,684.8179118674278,250.02080955856545Z" opacity="1" tabindex="0" role="img" aria-roledescription="data point" id="point-2-7" aria-label="League average, 2023-24: 10.2"/></g></g><g id="lines-secondary"/><g id="data-points-secondary"/><g id="axes-highlights"><g class="axis-highlights-facet"><defs><pattern class="fl-pattern-auto" width="4" height="4" patternUnits="userSpaceOnUse" id="fl-pattern-diagonal-x"><path stroke-width="1" shape-rendering="auto" stroke-linecap="square" d="M 0 4 l 4 -4 M -1 1 l 2 -2 M 3 5 l 2 -2" style="stroke: currentcolor;"/></pattern><pattern class="fl-pattern-auto" width="4" height="4" patternUnits="userSpaceOnUse" id="fl-pattern-dots-x"><path stroke-width="1" shape-rendering="auto" stroke-linecap="square" d="M 1 2 A 1.2 1.2 0 1 1 1 2.1 Z" style="fill: currentcolor;"/></pattern><pattern class="fl-pattern-auto" width="4" height="4" patternUnits="userSpaceOnUse" id="fl-pattern-grid-x"><path stroke-width="1" shape-rendering="auto" stroke-linecap="square" d="M 2 0 l 0 4 M 0 2 l 4 0" style="stroke: currentcolor;"/></pattern><pattern class="fl-pattern-auto" width="4" height="4" patternUnits="userSpaceOnUse" id="fl-pattern-diagonal-y"><path stroke-width="1" shape-rendering="auto" stroke-linecap="square" d="M 0 4 l 4 -4 M -1 1 l 2 -2 M 3 5 l 2 -2" style="stroke: currentcolor;"/></pattern><pattern class="fl-pattern-auto" width="4" height="4" patternUnits="userSpaceOnUse" id="fl-pattern-grid-y"><path stroke-width="1" shape-rendering="auto" stroke-linecap="square" d="M 2 0 l 0 4 M 0 2 l 4 0" style="stroke: currentcolor;"/></pattern><pattern class="fl-pattern-auto" width="4" height="4" patternUnits="userSpaceOnUse" id="fl-pattern-dots-y"><path stroke-width="1" shape-rendering="auto" stroke-linecap="square" d="M 1 2 A 1.2 1.2 0 1 1 1 2.1 Z" style="fill: currentcolor;"/></pattern></defs><g class="axis-highlights" style="opacity: 1;" transform="translate(29.33909797668457, 0)"/></g></g><g id="data-point-labels"><g class="series" transform="translate(29.33909797668457, 0)" clip-path="url(#clip-data-points-0)"/><g class="series" transform="translate(29.33909797668457, 0)" clip-path="url(#clip-data-points-1)"/><g class="series" transform="translate(29.33909797668457, 0)" clip-path="url(#clip-data-points-2)"/></g><g id="stack-labels"/><g class="annotations above"/></svg><svg xmlns="http://www.w3.org/2000/svg" id="fl-layout-svg-screenshot-container" class="flourish-screenshot-svg-container" style="left: 0px; top: 0px; width: 796px; height: 575px; position: absolute;" x="0" y="0"><text x="0px" y="0px" font-family="&quot;Source Sans Pro&quot;" font-size="22.4px" font-weight="700" fill="rgb(51, 51, 51)" style="dominant-baseline: text-before-edge;"><tspan dy="0" dx="0" x="0" opacity="1"/></text><text x="0px" y="0px" font-family="&quot;Source Sans Pro&quot;" font-size="22.4px" font-weight="400" fill="rgb(51, 51, 51)" style="dominant-baseline: text-before-edge;"><tspan dy="0" dx="0" x="0" opacity="1"/></text><text x="0px" y="0px" font-family="&quot;Source Sans Pro&quot;" font-size="16.8px" font-weight="400" fill="rgb(51, 51, 51)" style="dominant-baseline: text-before-edge;"><tspan dy="0" dx="0" x="0" opacity="1"/></text><text x="0px" y="0px" font-family="&quot;Source Sans Pro&quot;" font-size="14px" font-weight="400" fill="rgb(51, 51, 51)" style="dominant-baseline: text-before-edge;"><tspan dy="0" dx="0" x="0" opacity="1"/></text></svg></svg>